<?xml version="1.0" encoding="UTF-8"?>
<svg width="30px" height="30px" viewBox="0 0 30 30" version="1.1" xmlns="http://www.w3.org/2000/svg" xmlns:xlink="http://www.w3.org/1999/xlink">
    <title>Controls/Button/circle Copy</title>
    <defs>
        <circle id="path-1" cx="15" cy="15" r="15"></circle>
        <path d="M14.9919129,0.544433594 C14.9850464,0.490570078 14.9731445,0.438690195 14.9534607,0.390014648 C14.9528504,0.388793945 14.9528504,0.387115469 14.9525452,0.385589609 C14.9525452,0.385284414 14.95224,0.384979258 14.9519348,0.384674063 C14.9302673,0.333404531 14.9006653,0.286865234 14.8672485,0.243682852 C14.8590088,0.233459453 14.8509216,0.223388672 14.8422241,0.213775625 C14.8065186,0.173492422 14.7677613,0.136260977 14.7227478,0.105896016 C14.7215271,0.104980469 14.7200012,0.104675312 14.7187805,0.103759766 C14.675293,0.0750732422 14.6272278,0.0534057813 14.5768738,0.0363159375 C14.5643616,0.0318908594 14.5521545,0.0280761719 14.5393371,0.0247192188 C14.4865418,0.0103759766 14.4322205,0 14.375,0 L10,0 C9.65499879,0 9.375,0.279998789 9.375,0.625 C9.375,0.970001211 9.65499879,1.25 10,1.25 L12.8659058,1.25 L9.13558961,4.98031617 C8.14086914,4.18472289 6.91619875,3.75 5.625,3.75 C2.52349852,3.75 0,6.27349852 0,9.375 C0,12.4765015 2.52349852,15 5.625,15 C8.72650148,15 11.25,12.4765015 11.25,9.375 C11.25,8.08441164 10.8155823,6.86004641 10.0193787,5.86441039 L13.75,2.13378906 L13.75,5 C13.75,5.34500121 14.0299988,5.625 14.375,5.625 C14.7200012,5.625 15,5.34500121 15,5 L15,0.625 C15,0.611877422 14.9969482,0.599365234 14.9961853,0.586547852 C14.9952698,0.572204609 14.9937439,0.55847168 14.9919129,0.544433594 Z M5.625,13.75 C3.21243285,13.75 1.25,11.7875671 1.25,9.375 C1.25,6.96243285 3.21243285,5 5.625,5 C6.79306031,5 7.89276125,5.45471191 8.719635,6.27868652 C9.54528809,7.10723875 10,8.20693969 10,9.375 C10,11.7875671 8.03756715,13.75 5.625,13.75 Z" id="path-3"></path>
    </defs>
    <g id="Page-2" stroke="none" stroke-width="1" fill="none" fill-rule="evenodd">
        <g id="00-02-Multimedia-block" transform="translate(-245.000000, -469.000000)">
            <g id="Group-5" transform="translate(151.000000, 70.000000)">
                <g id="Controls/Button/circle-Copy" transform="translate(94.000000, 399.000000)">
                    <mask id="mask-2" fill="white">
                        <use xlink:href="#path-1"></use>
                    </mask>
                    <use id="🎨-Color" fill="#1F6897" xlink:href="#path-1"></use>
                    <g id="Group" mask="url(#mask-2)">
                        <g transform="translate(7.500000, 7.500000)" id="3-.ic/solid/ic_tick">
                            <mask id="mask-4" fill="white">
                                <use xlink:href="#path-3"></use>
                            </mask>
                            <use id="Mask" fill="#FFFFFF" xlink:href="#path-3"></use>
                        </g>
                    </g>
                </g>
            </g>
        </g>
    </g>
</svg>