<svg width="30" height="30" viewBox="0 0 30 30" xmlns="http://www.w3.org/2000/svg" xmlns:xlink="http://www.w3.org/1999/xlink">
    <defs>
        <circle id="a" cx="15" cy="15" r="15"/>
    </defs>
    <g fill="none" fill-rule="evenodd">
        <mask id="b" fill="#fff">
            <use xlink:href="#a"/>
        </mask>
        <use fill="#E5EFFA" xlink:href="#a"/>
        <g mask="url(#b)" fill="#1F6897">
            <path d="M22.492 8.044a.62.62 0 0 0-.039-.154v-.004l-.001-.001a.636.636 0 0 0-.085-.141l-.025-.03a.638.638 0 0 0-.12-.108l-.003-.002a.616.616 0 0 0-.18-.08.623.623 0 0 0-.164-.024H17.5a.625.625 0 0 0 0 1.25h2.866l-3.73 3.73a5.593 5.593 0 0 0-3.511-1.23A5.632 5.632 0 0 0 7.5 16.875a5.632 5.632 0 0 0 5.625 5.625 5.632 5.632 0 0 0 5.625-5.625c0-1.29-.434-2.515-1.23-3.51l3.73-3.731V12.5a.625.625 0 0 0 1.25 0V8.125c0-.013-.003-.026-.004-.038a.634.634 0 0 0-.004-.043zM13.125 21.25a4.38 4.38 0 0 1-4.375-4.375 4.38 4.38 0 0 1 7.47-3.096 4.38 4.38 0 0 1-3.095 7.471z"/>
        </g>
    </g>
</svg>
