<svg xmlns="http://www.w3.org/2000/svg" xmlns:xlink="http://www.w3.org/1999/xlink" width="289" height="48.694" viewBox="0 0 289 48.694">
  <defs>
    <style>
      .cls-1 {
        fill: #1e6998;
      }

      .cls-2 {
        opacity: 0.2;
        clip-path: url(#clip-path);
      }

      .cls-3 {
        fill: #4c95ff;
      }

      .cls-4 {
        fill: #cee2ff;
      }

      .cls-5 {
        fill: #74acff;
      }
    </style>
    <clipPath id="clip-path">
      <rect id="Rectangle_926" data-name="Rectangle 926" width="289" height="45" rx="5" transform="translate(375 40)"/>
    </clipPath>
  </defs>
  <g id="Group_85999" data-name="Group 85999" transform="translate(-375 -36.306)">
    <rect id="Rectangle_926-2" data-name="Rectangle 926" class="cls-1" width="230" height="45" rx="5" transform="translate(375 40)"/>
    <g id="Mask_Group_10" data-name="Mask Group 10" class="cls-2">
      <circle id="Ellipse_654" data-name="Ellipse 654" cx="40" cy="40" r="40" transform="translate(353 47)"/>
    </g>
    <g id="Group_85675" data-name="Group 85675" transform="translate(386.623 27)">
      <g id="coronavirus" transform="translate(0 9.306)">
        <g id="Group_85670" data-name="Group 85670" transform="translate(0 0)">
          <g id="XMLID_427_" transform="translate(0)">
            <g id="Group_85663" data-name="Group 85663">
              <path id="Path_79059" data-name="Path 79059" class="cls-3" d="M1.137,27.194A1.408,1.408,0,0,0,.027,28.846l.557,2.835a1.407,1.407,0,0,0,1.718,1.1A1.433,1.433,0,0,0,3.338,31.1l-.015-.076,3.67.167a.265.265,0,0,1,.241.184,15.789,15.789,0,0,0,1.4,3.08.267.267,0,0,1-.024.309L6.987,36.693a1.694,1.694,0,0,0-2.512,2.259l.471.615a1.721,1.721,0,0,0,2.331.4,1.7,1.7,0,0,0,.645-1.938L10.26,37a.267.267,0,0,1,.305.066A15.958,15.958,0,0,0,14.3,40.094a.267.267,0,0,1,.129.274l-.6,3.65-.518-.207a1.408,1.408,0,0,0-1.854.848,1.433,1.433,0,0,0,.845,1.78L14.954,47.5a1.407,1.407,0,0,0,1.853-.848,1.434,1.434,0,0,0-.845-1.781l-.072-.028,2.135-2.991a.266.266,0,0,1,.285-.1,15.95,15.95,0,0,0,7.178.186.269.269,0,0,1,.28.118L27.9,45.4l-.075.027a1.712,1.712,0,0,0-1.022,2.2,1.194,1.194,0,0,0,1.712,1.2l2.624-.957A1.711,1.711,0,0,0,32.176,45.7a1.748,1.748,0,0,0-2.248-1.037l-.061.022-.435-3.926a.267.267,0,0,1,.144-.267,15.925,15.925,0,0,0,4.408-3.366.267.267,0,0,1,.3-.067l3.2,1.313a1.507,1.507,0,0,0,.5,1.97,1.537,1.537,0,0,0,2.092-.435l.82-1.181a1.535,1.535,0,0,0-.28-2.077,1.507,1.507,0,0,0-2.138.274l-2.256-2.549a.267.267,0,0,1-.033-.307,15.763,15.763,0,0,0,1.832-5.492.266.266,0,0,1,.2-.224l3.6-.833,0,.423a1.544,1.544,0,0,0,1.543,1.529A1.515,1.515,0,0,0,44.9,27.942l-.024-2.619A1.562,1.562,0,0,0,43.3,23.768a1.529,1.529,0,0,0-1.488,1.537l-3.578-.839a.266.266,0,0,1-.2-.225,15.763,15.763,0,0,0-1.973-5.782.268.268,0,0,1,.027-.307l1.706-2,.148.2a1.343,1.343,0,0,0,1.931.221,1.368,1.368,0,0,0,.187-1.871l-1.137-1.5a1.342,1.342,0,0,0-2.2,1.529l-2.386,1.032a.269.269,0,0,1-.3-.066,15.912,15.912,0,0,0-3.91-3.12.269.269,0,0,1-.133-.272l.549-3.658.521.2A1.408,1.408,0,0,0,32.9,7.963a1.433,1.433,0,0,0-.868-1.769L29.37,5.171a1.407,1.407,0,0,0-1.841.873A1.433,1.433,0,0,0,28.4,7.813l.072.027-2.093,3.018a.267.267,0,0,1-.283.107,15.892,15.892,0,0,0-3.789-.455h0a.268.268,0,0,1-.254-.177l-.693-1.939a1.781,1.781,0,0,0,1.236-1.907,1.82,1.82,0,0,0-2.032-1.551l-.952.119a1.811,1.811,0,0,0-1.592,1.964,1.781,1.781,0,0,0,1.32,1.529l-.241,2.1a.266.266,0,0,1-.209.23,15.776,15.776,0,0,0-4.513,1.753.266.266,0,0,1-.3-.024L11.2,10.279l.436-.347A1.407,1.407,0,0,0,11.815,7.9a1.432,1.432,0,0,0-1.964-.15L7.62,9.524a1.407,1.407,0,0,0-.184,2.03A1.434,1.434,0,0,0,9.4,11.7l.061-.048L11,14.995a.266.266,0,0,1-.053.3A15.912,15.912,0,0,0,8.22,19.057a.268.268,0,0,1-.274.142l-2.181-.305A1.7,1.7,0,0,0,4.7,16.708a1.723,1.723,0,0,0-2.132,1.058l-.5,1.347a1.727,1.727,0,0,0,.9,2.189,1.7,1.7,0,0,0,2.128-.674L6.9,21.855A.266.266,0,0,1,7,22.148a15.9,15.9,0,0,0-.571,4.235q0,.368.017.731a.268.268,0,0,1-.159.258L2.9,28.853l-.107-.548a1.408,1.408,0,0,0-1.652-1.111Z" transform="translate(0 -4.921)"/>
            </g>
          </g>
          <ellipse id="Ellipse_646" data-name="Ellipse 646" class="cls-4" cx="2.241" cy="1.874" rx="2.241" ry="1.874" transform="translate(13.17 11.773)"/>
          <ellipse id="Ellipse_647" data-name="Ellipse 647" class="cls-4" cx="2.449" cy="2.449" rx="2.449" ry="2.449" transform="translate(21.048 22.866)"/>
          <ellipse id="Ellipse_648" data-name="Ellipse 648" class="cls-5" cx="1.754" cy="1.754" rx="1.754" ry="1.754" transform="translate(12.198 22.285)"/>
          <ellipse id="Ellipse_649" data-name="Ellipse 649" class="cls-5" cx="1.705" cy="1.705" rx="1.705" ry="1.705" transform="translate(18.723 30.893)"/>
          <g id="Group_85664" data-name="Group 85664" transform="translate(21.916 0.156)">
            <path id="Path_79060" data-name="Path 79060" class="cls-5" d="M10.04,27.192A18.759,18.759,0,0,0,2.622,12.235a15.786,15.786,0,0,1,1.554.3.267.267,0,0,0,.283-.107L6.552,9.41l-.072-.027a1.433,1.433,0,0,1-.868-1.769,1.407,1.407,0,0,1,1.841-.873l2.66,1.023a1.433,1.433,0,0,1,.868,1.769,1.408,1.408,0,0,1-1.841.873l-.521-.2L8.07,13.862a.269.269,0,0,0,.133.272,15.912,15.912,0,0,1,3.91,3.12.269.269,0,0,0,.3.066L14.8,16.289a1.342,1.342,0,0,1,2.2-1.529l1.137,1.5a1.368,1.368,0,0,1-.187,1.871,1.343,1.343,0,0,1-1.931-.221l-.148-.2-1.706,2a.268.268,0,0,0-.027.307,15.763,15.763,0,0,1,1.973,5.782.266.266,0,0,0,.2.225l3.578.839a1.529,1.529,0,0,1,1.488-1.537,1.562,1.562,0,0,1,1.571,1.555l.024,2.619a1.515,1.515,0,0,1-1.515,1.529,1.544,1.544,0,0,1-1.543-1.529l0-.423-3.6.833a.266.266,0,0,0-.2.224,15.763,15.763,0,0,1-1.832,5.492.267.267,0,0,0,.033.307l2.256,2.549A1.507,1.507,0,0,1,18.7,38.22a1.535,1.535,0,0,1,.28,2.077l-.82,1.181a1.537,1.537,0,0,1-2.092.435,1.507,1.507,0,0,1-.5-1.97l-3.2-1.313a.267.267,0,0,0-.3.067A15.925,15.925,0,0,1,7.66,42.063a.267.267,0,0,0-.144.267l.435,3.926.061-.022a1.748,1.748,0,0,1,2.248,1.037,1.711,1.711,0,0,1-1.033,2.164L6.6,50.392a1.194,1.194,0,0,1-1.712-1.2A1.712,1.712,0,0,1,5.912,47l.075-.027-2.135-3.35a.269.269,0,0,0-.28-.118,15.915,15.915,0,0,1-3.185.321c-.128,0-.259,0-.387,0A18.788,18.788,0,0,0,10.04,27.192Z" transform="translate(0 -6.647)"/>
          </g>
          <ellipse id="Ellipse_650" data-name="Ellipse 650" class="cls-4" cx="1.776" cy="1.776" rx="1.776" ry="1.776" transform="translate(29.321 26.743)"/>
          <g id="Group_85665" data-name="Group 85665" transform="translate(17.273 19.343)">
            <path id="Path_79061" data-name="Path 79061" class="cls-5" d="M284.209,219.967h.6a.679.679,0,1,0,0-1.358h-.6a.679.679,0,0,0,0,1.358Z" transform="translate(-283.53 -218.609)"/>
          </g>
          <g id="Group_85666" data-name="Group 85666" transform="translate(25.268 31.211)">
            <path id="Path_79062" data-name="Path 79062" class="cls-5" d="M195.7,351.067h.617a.679.679,0,1,0,0-1.358H195.7a.679.679,0,0,0,0,1.358Z" transform="translate(-195.022 -349.709)"/>
          </g>
          <g id="Group_85667" data-name="Group 85667" transform="translate(31.601 21.324)">
            <path id="Path_79063" data-name="Path 79063" class="cls-4" d="M125.994,241.845h.594a.679.679,0,1,0,0-1.358h-.594a.679.679,0,1,0,0,1.358Z" transform="translate(-125.315 -240.487)"/>
          </g>
          <g id="Group_85668" data-name="Group 85668" transform="translate(19.543 9.446)">
            <path id="Path_79064" data-name="Path 79064" class="cls-5" d="M256.631,110.628h.827a.679.679,0,1,0,0-1.358h-.827a.679.679,0,0,0,0,1.358Z" transform="translate(-255.952 -109.27)"/>
          </g>
          <g id="Group_85669" data-name="Group 85669" transform="translate(14.114 29.001)">
            <path id="Path_79065" data-name="Path 79065" class="cls-4" d="M315.656,326.652h.913a.679.679,0,0,0,0-1.358h-.913a.679.679,0,0,0,0,1.358Z" transform="translate(-314.977 -325.294)"/>
          </g>
        </g>
        <ellipse id="Ellipse_651" data-name="Ellipse 651" class="cls-4" cx="4.674" cy="3.904" rx="4.674" ry="3.904" transform="matrix(-0.785, -0.619, 0.619, -0.785, 28.818, 21.476)"/>
      </g>
    </g>
  </g>
</svg>
