<?xml version="1.0" encoding="UTF-8"?>
<svg width="30px" height="30px" viewBox="0 0 30 30" version="1.1" xmlns="http://www.w3.org/2000/svg" xmlns:xlink="http://www.w3.org/1999/xlink">
    <title>Controls/Button/circle Copy 5</title>
    <defs>
        <circle id="path-1" cx="15" cy="15" r="15"></circle>
        <path d="M12.5,5.3125 C12.5,2.38311766 10.1168823,0 7.1875,0 C4.25811766,0 1.875,2.38311766 1.875,5.3125 C1.875,8.02993773 3.92715453,10.2740479 6.5625,10.585022 L6.5625,11.875 L5.3125,11.875 C4.96749879,11.875 4.6875,12.1549988 4.6875,12.5 C4.6875,12.8450012 4.96749879,13.125 5.3125,13.125 L6.5625,13.125 L6.5625,14.375 C6.5625,14.7200012 6.84249879,15 7.1875,15 C7.53250121,15 7.8125,14.7200012 7.8125,14.375 L7.8125,13.125 L9.0625,13.125 C9.40750121,13.125 9.6875,12.8450012 9.6875,12.5 C9.6875,12.1549988 9.40750121,11.875 9.0625,11.875 L7.8125,11.875 L7.8125,10.585022 C10.4478455,10.2740479 12.5,8.02993773 12.5,5.3125 Z M3.125,5.3125 C3.125,3.07250977 4.94750977,1.25 7.1875,1.25 C9.42749023,1.25 11.25,3.07250977 11.25,5.3125 C11.25,7.55249023 9.42749023,9.375 7.1875,9.375 C4.94750977,9.375 3.125,7.55249023 3.125,5.3125 Z" id="path-3"></path>
    </defs>
    <g id="Page-2" stroke="none" stroke-width="1" fill="none" fill-rule="evenodd">
        <g id="00-02-Multimedia-block" transform="translate(-331.000000, -469.000000)">
            <g id="Group-5" transform="translate(151.000000, 70.000000)">
                <g id="Controls/Button/circle-Copy-5" transform="translate(180.000000, 399.000000)">
                    <mask id="mask-2" fill="white">
                        <use xlink:href="#path-1"></use>
                    </mask>
                    <use id="🎨-Color" fill="#E5EFFA" xlink:href="#path-1"></use>
                    <g id="Group" mask="url(#mask-2)">
                        <g transform="translate(7.500000, 7.500000)" id="3-.ic/solid/ic_tick">
                            <mask id="mask-4" fill="white">
                                <use xlink:href="#path-3"></use>
                            </mask>
                            <use id="Mask" fill="#1F6897" xlink:href="#path-3"></use>
                        </g>
                    </g>
                </g>
            </g>
        </g>
    </g>
</svg>